#tb 0: 1/25
#media_type 0: video
#codec_id 0: rawvideo
#dimensions 0: 352x288
#sar 0: 0/1
0,          0,          0,        1,   405504, 0x6d5666c8
0,          1,          1,        1,   405504, 0x4813ba17
0,          2,          2,        1,   405504, 0x23880ee1
0,          3,          3,        1,   405504, 0x3709926b
0,          4,          4,        1,   405504, 0x1748e102
0,          5,          5,        1,   405504, 0x12b4472b
0,          6,          6,        1,   405504, 0x0441fe6b
0,          7,          7,        1,   405504, 0x4fa8d058
0,          8,          8,        1,   405504, 0xa0d810fb
0,          9,          9,        1,   405504, 0xaca3ca02
0,         10,         10,        1,   405504, 0x0afe65ea
0,         11,         11,        1,   405504, 0xb81a9bd1
0,         12,         12,        1,   405504, 0xb85f10eb
0,         13,         13,        1,   405504, 0x4dc5e992
0,         14,         14,        1,   405504, 0x6e9f8042
0,         15,         15,        1,   405504, 0xf8e58f43
0,         16,         16,        1,   405504, 0xc717635c
0,         17,         17,        1,   405504, 0x5928548d
0,         18,         18,        1,   405504, 0x8f2295f9
0,         19,         19,        1,   405504, 0x5c449294
0,         20,         20,        1,   405504, 0xe8c5d6ef
0,         21,         21,        1,   405504, 0x3608a811
0,         22,         22,        1,   405504, 0xa3788a12
0,         23,         23,        1,   405504, 0x90ad93a3
0,         24,         24,        1,   405504, 0x26c603bc
0,         25,         25,        1,   405504, 0x055d69a8
0,         26,         26,        1,   405504, 0x834747ea
0,         27,         27,        1,   405504, 0x16eea5dd
0,         28,         28,        1,   405504, 0xa2af8e0d
0,         29,         29,        1,   405504, 0x65d2380f
0,         30,         30,        1,   405504, 0xf4858c72
0,         31,         31,        1,   405504, 0x90755bc9
0,         32,         32,        1,   405504, 0xabfac3b0
0,         33,         33,        1,   405504, 0x4a76adbd
0,         34,         34,        1,   405504, 0x633183e9
0,         35,         35,        1,   405504, 0xcb8ff8fe
0,         36,         36,        1,   405504, 0x9c96074a
0,         37,         37,        1,   405504, 0x700ea35c
0,         38,         38,        1,   405504, 0x31bb483c
0,         39,         39,        1,   405504, 0x50dd7ca7
0,         40,         40,        1,   405504, 0x047988a0
0,         41,         41,        1,   405504, 0xe4d7a9dd
0,         42,         42,        1,   405504, 0x455d82ab
0,         43,         43,        1,   405504, 0x8f875343
0,         44,         44,        1,   405504, 0x8be18c94
0,         45,         45,        1,   405504, 0x75431a7d
0,         46,         46,        1,   405504, 0x08122c08
0,         47,         47,        1,   405504, 0xfca4159a
0,         48,         48,        1,   405504, 0x90c9afd6
0,         49,         49,        1,   405504, 0x817e3b6a
